<svg version="1.1" id="Lager_2" xmlns="http://www.w3.org/2000/svg" xmlns:xlink="http://www.w3.org/1999/xlink" x="0px" y="0px"
	 width="1013px" height="291.565px" viewBox="0 0 1013 291.565" enable-background="new 0 0 1013 291.565" xml:space="preserve" fill="#9CA3AF">
	<path d="M292.5,114.05h-17.278c17.66-29.701,28.568-48.492,35.013-59.768C357.751,62.069,380,55.55,380,55.55l38.5-38.5
		c0,0-46,8.5-112.5-5s-78-12-78-12c-63.5,2-79,24-106.5,58s-18.5,71-18.5,71l30.5-24c0,0-1-8.5,0.5-22s6-25.5,15-36s22-20.5,49-20.5
		c23.703,0,27.374,7.322,70.199,18.582c-14.088,22.029-33.331,54.724-41.624,68.918H174.5l-9,20h51.07
		c-4.89,8.505-12.722,21.704-25.07,42c-43.5,71.5-78,103-119.5,103s-52-33-52-33H0c0,0,22.5,46.5,82,45.5s114-45.5,169-137
		c4.361-7.254,8.452-14.078,12.293-20.5H282L292.5,114.05z"/>
	<path d="M936.5,211.05c0,0,32.5-51.5,36-58s18-40.053-10-40.053s-45,12.553-45,12.553s2-12.553-20-12.553S851,138.55,851,138.55
		l8,10.5c0,0,7-8,12.5-10.5s0,7,0,7l-40,65.5c0,0-32.066,0.144-64.756,0.278c-4.011-2.515-4.744-5.664-4.744-9.278
		c0-6.5,7.5-17,7.5-17s17.5-2,30-8s40.5-19,42.5-42.5s-19.5-21.553-19.5-21.553S794,116.05,773,128.55s-44,40-47,69
		c-0.633,6.115-0.123,10.614,1.062,13.931c-11.959,0.042-21.507,0.069-26.062,0.069c-19.5,0-14-7.5-14-7.5s3-6,17.5-26
		s22.5-43.5,22.5-43.5s3-21.553-15.5-21.553s-44,14.053-44,14.053s-1-12-18.5-13.866c-17.5-1.866-41.5,10.866-41.5,10.866
		s-2.5-14.5-27-10s-40.5,23.5-40.5,23.5s6.5,10,8.5,8.233s6.5-6.233,11-7.733s-2.5,11-2.5,11l-37,62h-78c0,0,0,0,14-22.5
		s30.331-44.609,30.331-44.609S486,146.55,488,152.05s4.5,13,16,13.25s23.5-11.75,28-22.75s4-28.5-17.5-28.5s-29,10-29,10
		s1-10-19.5-10s-42,23-42,23l6.803,10.816c0.532-0.739,2.243-2.144,6.697-4.816c10-6,0,9,0,9l-35.217,59H364l59-97h-40.5l-4,5
		c0,0-17-7.5-40-2.5s-65.5,40.5-69.5,76s23,34.5,23,34.5h258c0,0,36-61.125,42-68.125s12.5-13.808,26.5-22.308s2,11.067,2,11.067
		l-48.797,79.366h39.922c0,0,30.109-51.737,43.75-68.25c8.751-10.593,16.294-15.842,21.375-19.75c13-10,5.75,5,5.75,5
		s-13,23-21,36.5c-3.619,6.107-14.438,24.56-14.438,36.014S667,227.05,667,227.05h197.5c0,0,19-32.001,34-57.026
		c12.535-20.913,35.814-33.256,36.862-33.1c3.322,0.494-1.941,10.044-5.362,16.126c-4.5,8-23.5,31.5-27,51s11,23,11,23h92.5l6.5-16
		H936.5z M797,144.05c9.426-9.688,22.264-18.43,26.625-17.25c3.966,1.073,0.401,11.163-9.125,20.634
		c-20,19.884-30.572,17.866-30.572,17.866S779,162.55,797,144.05z M307,208.05c-9-1-12.5-6.5,11.5-42.75s41-33.75,41-33.75
		c14.5,0.5,7.5,5.5-8.5,33.75S316,209.05,307,208.05z"/>
	<path d="M431.31,148.671l-0.507-0.805C430.141,148.786,431.31,148.671,431.31,148.671z"/>
</svg>
